<?xml version="1.0" encoding="UTF-8"?>
<svg xmlns="http://www.w3.org/2000/svg" xmlns:xlink="http://www.w3.org/1999/xlink" width="88px" height="24px" viewBox="0 0 88 24" version="1.1">
<g id="surface1">
<path style=" stroke:none;fill-rule:nonzero;fill:rgb(0%,0%,0%);fill-opacity:1;" d="M 0 9.964844 L 0 19.917969 L 0.390625 19.890625 L 0.769531 19.863281 L 0.796875 10.335938 L 0.816406 0.816406 L 4.804688 0.816406 L 4.75 1.0625 C 4.617188 1.601562 3.601562 4.683594 3.238281 5.65625 L 2.847656 6.691406 L 3.335938 7.410156 C 4.433594 9.046875 4.925781 10.453125 4.925781 12 C 4.925781 13.0625 4.804688 13.609375 4.507812 13.953125 C 4.34375 14.144531 4.179688 14.210938 3.628906 14.289062 C 3.253906 14.335938 2.648438 14.355469 2.277344 14.328125 L 1.605469 14.273438 L 1.667969 14.617188 C 1.695312 14.800781 1.722656 15.007812 1.722656 15.082031 C 1.722656 15.183594 1.894531 15.199219 2.65625 15.15625 C 4.324219 15.0625 4.988281 14.78125 5.359375 14.027344 C 5.550781 13.644531 5.578125 13.4375 5.605469 12.363281 C 5.632812 11.355469 5.605469 10.992188 5.449219 10.328125 C 5.207031 9.316406 4.796875 8.363281 4.152344 7.328125 L 3.65625 6.519531 L 3.855469 6.007812 C 4.679688 3.972656 5.621094 0.964844 5.621094 0.382812 L 5.621094 0 L 0 0 Z M 0 9.964844 "/>
<path style=" stroke:none;fill-rule:nonzero;fill:rgb(0%,0%,0%);fill-opacity:1;" d="M 23.941406 8.128906 C 23.941406 13.089844 23.976562 16.425781 24.03125 16.71875 C 24.265625 17.972656 24.800781 18.472656 26.253906 18.789062 C 27.214844 19.007812 36.917969 19.074219 38.539062 18.871094 C 40.210938 18.671875 40.726562 18.472656 41.078125 17.890625 C 41.332031 17.480469 41.414062 17.144531 41.632812 15.773438 C 41.859375 14.273438 41.859375 14.21875 41.378906 14 L 41.007812 13.835938 L 40.898438 14.617188 C 40.691406 16.21875 40.527344 17.046875 40.371094 17.308594 C 39.929688 18.074219 39.292969 18.136719 32.691406 18.136719 C 27.207031 18.128906 26.453125 18.082031 25.773438 17.738281 C 25.589844 17.636719 25.347656 17.464844 25.246094 17.34375 C 24.828125 16.882812 24.8125 16.710938 24.773438 12.753906 L 24.746094 9 L 32.347656 8.980469 L 39.945312 8.953125 L 39.972656 4.472656 L 39.992188 0 L 23.941406 0 Z M 31.46875 4.453125 L 31.46875 8.089844 L 24.757812 8.089844 L 24.757812 0.816406 L 31.46875 0.816406 Z M 39.140625 4.453125 L 39.128906 8.089844 L 32.285156 8.089844 L 32.285156 0.816406 L 39.140625 0.816406 Z M 39.140625 4.453125 "/>
<path style=" stroke:none;fill-rule:nonzero;fill:rgb(0%,0%,0%);fill-opacity:1;" d="M 46.085938 9.925781 L 46.113281 19.863281 L 46.503906 19.890625 L 46.882812 19.917969 L 46.882812 0.816406 L 48.878906 0.816406 C 49.976562 0.816406 50.875 0.84375 50.875 0.882812 C 50.875 1.15625 49.859375 4.226562 49.140625 6.144531 L 48.933594 6.710938 L 49.394531 7.371094 C 50.511719 9.007812 51 10.390625 51.011719 11.953125 C 51.011719 13.074219 50.875 13.699219 50.554688 14 C 50.285156 14.253906 49.386719 14.390625 48.445312 14.328125 L 47.691406 14.273438 L 47.746094 14.609375 C 47.855469 15.246094 47.800781 15.21875 48.769531 15.15625 C 49.875 15.082031 50.511719 14.945312 50.890625 14.699219 C 51.507812 14.289062 51.84375 13.082031 51.734375 11.636719 C 51.636719 10.191406 51.089844 8.65625 50.203125 7.28125 C 49.976562 6.917969 49.785156 6.582031 49.785156 6.507812 C 49.785156 6.445312 49.894531 6.136719 50.019531 5.808594 C 50.820312 3.855469 51.691406 1.027344 51.691406 0.417969 L 51.691406 0 L 46.066406 0 Z M 46.085938 9.925781 "/>
<path style=" stroke:none;fill-rule:nonzero;fill:rgb(0%,0%,0%);fill-opacity:1;" d="M 70.027344 8.382812 L 70.054688 16.773438 L 70.253906 17.28125 C 70.617188 18.171875 71.25 18.601562 72.546875 18.828125 C 73.519531 19.007812 84.035156 19.007812 85.152344 18.835938 C 87.03125 18.535156 87.417969 18.0625 87.738281 15.664062 C 87.808594 15.074219 87.898438 14.5 87.917969 14.390625 C 87.953125 14.226562 87.898438 14.171875 87.554688 14.035156 C 87.328125 13.953125 87.128906 13.898438 87.101562 13.917969 C 87.085938 13.945312 87.003906 14.472656 86.921875 15.089844 C 86.730469 16.5625 86.628906 16.992188 86.421875 17.34375 C 85.976562 18.074219 85.371094 18.136719 78.804688 18.128906 C 73.171875 18.128906 72.476562 18.082031 71.785156 17.699219 C 71.296875 17.4375 71.042969 17.027344 70.925781 16.335938 C 70.859375 15.980469 70.824219 14.4375 70.824219 12.382812 L 70.824219 9 L 86.058594 9 L 86.058594 0 L 70 0 Z M 77.535156 4.453125 L 77.535156 8.089844 L 70.824219 8.089844 L 70.824219 0.816406 L 77.535156 0.816406 Z M 85.242188 4.453125 L 85.242188 8.089844 L 78.441406 8.089844 L 78.441406 0.816406 L 85.242188 0.816406 Z M 85.242188 4.453125 "/>
<path style=" stroke:none;fill-rule:nonzero;fill:rgb(0%,0%,0%);fill-opacity:1;" d="M 6.710938 0.863281 L 6.710938 1.273438 L 16.234375 1.273438 L 16.234375 9.472656 C 16.234375 15.835938 16.207031 17.738281 16.113281 17.910156 C 15.886719 18.382812 15.453125 18.480469 13.746094 18.480469 C 12.894531 18.480469 12.0625 18.453125 11.890625 18.410156 L 11.582031 18.34375 L 11.644531 18.691406 C 11.753906 19.328125 11.769531 19.335938 12.234375 19.398438 C 12.824219 19.480469 15.171875 19.300781 15.75 19.136719 C 16.003906 19.0625 16.339844 18.898438 16.488281 18.773438 C 17.066406 18.289062 17.046875 18.535156 17.046875 9.480469 L 17.046875 1.273438 L 19.40625 1.273438 L 19.40625 0.453125 L 6.710938 0.453125 Z M 6.710938 0.863281 "/>
<path style=" stroke:none;fill-rule:nonzero;fill:rgb(0%,0%,0%);fill-opacity:1;" d="M 52.777344 0.863281 L 52.777344 1.273438 L 62.390625 1.273438 L 62.390625 9.199219 C 62.382812 13.5625 62.34375 17.316406 62.308594 17.535156 C 62.171875 18.21875 61.9375 18.363281 60.820312 18.464844 C 60.25 18.507812 59.417969 18.507812 58.789062 18.464844 C 58.199219 18.417969 57.710938 18.398438 57.691406 18.410156 C 57.683594 18.417969 57.710938 18.636719 57.765625 18.882812 L 57.867188 19.34375 L 58.335938 19.398438 C 58.972656 19.480469 61.230469 19.300781 61.847656 19.128906 C 62.445312 18.953125 62.71875 18.726562 62.972656 18.183594 C 63.160156 17.773438 63.160156 17.699219 63.1875 9.519531 L 63.214844 1.273438 L 65.472656 1.273438 L 65.472656 0.453125 L 52.777344 0.453125 Z M 52.777344 0.863281 "/>
<path style=" stroke:none;fill-rule:nonzero;fill:rgb(0%,0%,0%);fill-opacity:1;" d="M 7.34375 9.410156 L 7.34375 13.636719 L 13.058594 13.636719 L 13.058594 5.183594 L 7.34375 5.183594 Z M 12.332031 9.363281 L 12.332031 12.816406 L 8.070312 12.816406 L 8.070312 9.425781 C 8.070312 7.554688 8.097656 6 8.132812 5.972656 C 8.160156 5.9375 9.121094 5.910156 10.265625 5.910156 L 12.332031 5.910156 Z M 12.332031 9.363281 "/>
<path style=" stroke:none;fill-rule:nonzero;fill:rgb(0%,0%,0%);fill-opacity:1;" d="M 53.503906 9.410156 L 53.503906 13.636719 L 59.125 13.636719 L 59.125 5.183594 L 53.503906 5.183594 Z M 58.402344 9.363281 L 58.402344 12.816406 L 54.230469 12.816406 L 54.230469 5.910156 L 58.402344 5.910156 Z M 58.402344 9.363281 "/>
<path style=" stroke:none;fill-rule:nonzero;fill:rgb(0%,0%,0%);fill-opacity:1;" d="M 0 22.726562 L 0 24 L 87.964844 24 L 87.964844 21.453125 L 0 21.453125 Z M 0 22.726562 "/>
</g>
</svg>
